<?xml version="1.0" encoding="iso-8859-1"?>
<!-- Generator: Adobe Illustrator 19.0.0, SVG Export Plug-In . SVG Version: 6.00 Build 0)  -->
<svg version="1.1" id="Layer_1" xmlns="http://www.w3.org/2000/svg" xmlns:xlink="http://www.w3.org/1999/xlink" x="0px" y="0px"
	 viewBox="0 0 512 512" style="enable-background:new 0 0 512 512;" xml:space="preserve">
<path style="fill:#FC7F59;" d="M504.5,120.344v75.229c0,8.31-6.741,15.046-15.057,15.046h-82.816v82.752
	c0,8.31-6.741,15.046-15.057,15.046h-54.158c-8.316,0-15.057-6.736-15.057-15.046V210.62h-82.816
	c-8.316,0-15.057-6.736-15.057-15.046v-61.882c0-8.31,6.741-15.046,15.057-15.046h82.816v-96.1c0-8.31,6.741-15.046,15.057-15.046
	h54.158c8.316,0,15.057,6.736,15.057,15.046v82.752h82.816C497.759,105.299,504.5,112.035,504.5,120.344z"/>
<path style="fill:#F97253;" d="M372.384,223.592c0.181,25.66-4.27,55.922-17.695,84.826h-17.278
	c-8.316,0-15.057-6.736-15.057-15.046v-69.205c13.392-5.169,26.881-8.18,39.895-8.89
	C372.33,214.727,372.376,222.476,372.384,223.592z M224.481,133.692v61.882c0,8.31,6.741,15.046,15.057,15.046h2.272
	c0.034-2.154,0.057-4.31,0.057-6.471c0-29.287-4.53-56.876-12.946-81.124C226.18,125.75,224.481,129.522,224.481,133.692z"/>
<path style="fill:#FF9C6F;" d="M489.443,105.299h-82.816V22.546c0-8.31-6.741-15.046-15.057-15.046h-75.287
	c-8.316,0-15.057,6.736-15.057,15.046v82.752H218.41c-8.316,0-15.057,6.736-15.057,15.046v75.229c0,8.31,6.741,15.046,15.057,15.046
	h82.816v82.752c0,8.31,6.741,15.046,15.057,15.046h75.287c8.316,0,15.057-6.736,15.057-15.046V210.62h82.816
	c8.316,0,15.057-6.736,15.057-15.046v-75.229C504.5,112.035,497.759,105.299,489.443,105.299z M475.357,181.499h-97.873v97.798
	h-47.115v-97.798h-97.873V134.42h97.873V36.621h47.115v97.798h97.873V181.499z"/>
<path style="fill:#FF8E61;" d="M240.947,181.499c0.61,7.414,0.921,14.974,0.921,22.65c0,2.16-0.023,4.316-0.057,6.471H218.41
	c-8.316,0-15.057-6.736-15.057-15.046v-75.229c0-8.31,6.741-15.046,15.057-15.046h3.392c4.206,9.124,7.802,18.863,10.73,29.121
	h-0.036v47.079L240.947,181.499L240.947,181.499z M330.369,279.297v-57.955c-9.781,3.138-19.568,7.441-29.143,12.856v59.175
	c0,8.31,6.741,15.046,15.057,15.046h38.406c4.473-9.63,7.952-19.41,10.591-29.121L330.369,279.297L330.369,279.297z"/>
<path style="fill:#B7CB4E;" d="M218.571,204.767c0,44.598-5.252,87.923-18.505,123.126l-11.136,29.579
	c-2.526,6.708-12.022,6.708-14.548,0l-11.136-29.579c-13.253-35.203-20.448-78.529-20.448-123.126
	c0-56.015,13.895-105.296,34.943-134.02c1.932-2.637,5.902-2.63,7.822,0.016C206.407,99.49,218.571,148.762,218.571,204.767z
	 M150.421,406.424l-6.059-3.315c-13.325-7.29-29.724-11.248-46.604-11.248l0,0c-20.43,0-38.493,7.097-49.508,17.972
	c-1.885,1.861-1.885,4.945,0,6.805c11.016,10.875,29.079,17.972,49.508,17.972l0,0c16.88,0,33.279-3.958,46.604-11.248l5.764-4.101
	c2.027-1.109,3.587-2.11,4.088-4.065C155.043,411.958,153.779,408.261,150.421,406.424z M266.784,391.86L266.784,391.86
	c-16.88,0-33.279,3.958-46.604,11.248l-6.059,3.315c-3.358,1.837-4.622,5.534-3.792,8.772c0.501,1.955,2.061,2.956,4.088,4.065
	l5.764,4.101c13.325,7.29,29.724,11.248,46.604,11.248l0,0c20.43,0,38.493-7.097,49.508-17.972c1.885-1.861,1.885-4.945,0-6.805
	C305.276,398.957,287.213,391.86,266.784,391.86z M351.101,232.519c-25.995,2.866-57.943,19.598-85.568,47.201l0,0
	c-22.287,22.271-39.897,47.945-50.044,72.964l-7.198,17.747c-0.468,1.155-0.643,2.309-0.576,3.409c0.3,4.956,7.309,7.709,12.517,5.6
	l15.942-6.088c25.038-10.14,69.576-55.956,69.576-55.956c27.624-27.603,41.983-53.955,50.682-79.553
	C357.42,234.932,354.161,232.182,351.101,232.519z M148.547,352.684c-10.147-25.019-27.757-50.693-50.044-72.964l0,0
	c-27.624-27.603-59.573-44.336-85.568-47.201c-3.06-0.337-5.99,2.321-5.33,5.326c5.625,25.598,23.057,51.95,50.682,79.553
	c0,0,44.538,45.816,69.576,55.956l15.942,6.088c5.208,2.109,12.216-0.644,12.516-5.6c0.067-1.1-0.108-2.254-0.576-3.409
	L148.547,352.684z"/>
<path style="fill:#A4A74E;" d="M220.514,204.782c0,44.598-7.195,87.923-20.448,123.126l-18.409,48.9l-2.939-7.807l2.243-7.819
	c13.253-46.189,20.448-103.035,20.448-161.55l0,0c0-48.96-6.169-93.993-16.509-129.75C206.32,98.47,220.514,148.18,220.514,204.782z
	 M356.103,234.969c-8.747,20.563-22.355,42.032-40.153,62.01l0,0c-25.62,28.759-55.73,52.055-85.568,66.204l-22.685,10.753
	c0.301,4.956,5.639,8.744,10.846,6.636l17.761-7.193c25.038-10.14,50.732-27.736,73.02-50.006l0,0
	c27.624-27.603,41.42-60.025,47.238-85.502C356.828,236.705,356.555,235.797,356.103,234.969z M48.217,296.968L48.217,296.968
	c-17.797-19.978-31.406-41.447-40.153-62.01c-0.452,0.828-0.725,1.736-0.459,2.901c5.818,25.477,19.613,57.899,47.238,85.502l0,0
	c22.287,22.271,47.981,39.867,73.02,50.006l17.761,7.193c5.208,2.109,10.39-1.749,10.69-6.705l-22.529-10.683
	C103.946,349.023,73.837,325.728,48.217,296.968z M102.373,421.539c-20.61,0-39.709-2.799-55.468-7.562
	c0.149,0.983,0.587,1.929,1.344,2.676c11.016,10.875,29.079,17.972,49.508,17.972l0,0c16.88,0,33.279-3.958,46.604-11.248
	l6.059-3.315c1.546-0.846,2.633-2.092,3.291-3.5C137.716,419.806,120.225,421.539,102.373,421.539L102.373,421.539z
	 M262.167,421.539c-17.851,0-35.343-1.733-51.338-4.977c0.658,1.408,1.745,2.654,3.291,3.5l6.059,3.315
	c13.325,7.29,29.724,11.248,46.604,11.248l0,0c20.43,0,38.493-7.097,49.508-17.972c0.757-0.747,1.195-1.693,1.344-2.676
	C301.877,418.74,282.778,421.539,262.167,421.539L262.167,421.539z"/>
<path d="M489.442,97.799h-75.318V22.546C414.124,10.114,404.004,0,391.566,0h-75.29c-12.438,0-22.558,10.114-22.558,22.546v75.253
	h-61.603c-4.142,0-7.5,3.357-7.5,7.5s3.358,7.5,7.5,7.5h69.103c4.142,0,7.5-3.357,7.5-7.5V22.546c0-4.161,3.39-7.546,7.558-7.546
	h75.29c4.167,0,7.558,3.385,7.558,7.546v82.753c0,4.143,3.358,7.5,7.5,7.5h82.818c4.167,0,7.558,3.385,7.558,7.546v75.229
	c0,4.161-3.391,7.546-7.558,7.546h-82.818c-4.142,0-7.5,3.357-7.5,7.5v82.752c0,4.161-3.391,7.546-7.558,7.546h-31.681
	c-4.142,0-7.5,3.357-7.5,7.5s3.358,7.5,7.5,7.5h31.681c12.438,0,22.558-10.114,22.558-22.546V218.12h75.318
	c12.438,0,22.558-10.114,22.558-22.546v-75.229C512,107.913,501.881,97.799,489.442,97.799z M320.442,404.237
	c2.454,2.392,3.805,5.587,3.805,9c0,3.412-1.352,6.607-3.805,8.996c-12.968,12.632-32.838,19.877-54.516,19.877
	c-18.033,0-35.863-4.321-50.206-12.168l-16.827-9.207h-9.748V504.5c0,4.143-3.358,7.5-7.5,7.5s-7.5-3.357-7.5-7.5v-83.766h-9.37
	l-16.827,9.206c-14.343,7.848-32.173,12.169-50.206,12.169c-21.677,0-41.548-7.245-54.517-19.878
	c-2.452-2.388-3.804-5.583-3.804-8.995c0-3.413,1.35-6.608,3.803-8.999c12.97-12.632,32.84-19.877,54.517-19.877
	c18.033,0,35.863,4.321,50.206,12.168l16.827,9.206h6.486l-12.557-11.765l-33.746-13.666c-25.823-10.456-52.639-28.8-75.509-51.651
	C21.755,300.979,3.299,267.413,0.08,238.864c-0.427-3.78,0.877-7.498,3.577-10.198c2.701-2.702,6.416-4.006,10.206-3.58
	c28.568,3.217,62.158,21.657,89.852,49.329c22.871,22.853,41.229,49.647,51.695,75.45l13.386,33.004l5.35,5.012v-9.722
	l-17.929-47.623c-13.497-35.851-20.93-80.516-20.93-125.769c0-55.483,13.563-107.183,36.28-138.296
	c2.337-3.201,6.105-5.112,10.08-5.112s7.742,1.911,10.08,5.112c22.717,31.112,36.279,82.812,36.279,138.295
	c0,45.254-7.433,89.92-20.93,125.77l-17.929,47.623v10.416l5.913-5.498l13.471-33.212c10.466-25.803,28.825-52.598,51.695-75.45
	c27.694-27.672,61.284-46.112,89.853-49.329c3.777-0.424,7.502,0.878,10.205,3.58c2.7,2.7,4.003,6.418,3.577,10.199
	c-3.219,28.548-21.675,62.113-49.371,89.787c-22.87,22.852-49.686,41.195-75.509,51.651l-33.5,13.566l-12.76,11.864h6.175
	l16.827-9.206c14.343-7.847,32.173-12.168,50.206-12.168C287.603,384.361,307.473,391.606,320.442,404.237z M214.994,373.834
	l18.355-7.433c24.004-9.721,49.054-26.896,70.536-48.36c24.292-24.272,40.771-53.02,44.629-77.612
	c-24.619,3.854-53.393,20.321-77.688,44.598c-21.482,21.464-38.67,46.493-48.397,70.478L214.994,373.834z M148.944,373.834
	l-7.435-18.33c-9.728-23.984-26.916-49.014-48.397-70.478c-24.295-24.276-53.07-40.744-77.688-44.598
	c3.859,24.594,20.338,53.34,44.629,77.612c21.482,21.465,46.532,38.64,70.536,48.36L148.944,373.834z M147.232,413.235l-6.483-3.546
	c-12.173-6.66-27.447-10.328-43.006-10.328c-16.468,0-31.992,5.148-42.14,13.874c10.148,8.727,25.671,13.875,42.14,13.875
	c15.56,0,30.833-3.668,43.006-10.328L147.232,413.235z M193.036,325.251c12.876-34.202,19.968-76.99,19.968-120.483v-0.001
	c0-50.694-11.677-97.625-31.359-126.562c-19.682,28.937-31.359,75.867-31.359,126.562c0,43.493,7.092,86.282,19.968,120.484
	l11.391,30.257L193.036,325.251z M308.065,413.235c-10.147-8.726-25.67-13.874-42.14-13.874c-15.56,0-30.833,3.668-43.006,10.328
	l-6.483,3.546l6.483,3.548c12.173,6.659,27.446,10.327,43.006,10.327C282.395,427.11,297.918,421.961,308.065,413.235z
	 M301.218,232.167c4.142,0,7.5-3.357,7.5-7.5V210.62c0-4.143-3.358-7.5-7.5-7.5h-53.09c-4.142,0-7.5,3.357-7.5,7.5
	s3.358,7.5,7.5,7.5h45.59v6.547C293.718,228.81,297.076,232.167,301.218,232.167z"/>
<g>
</g>
<g>
</g>
<g>
</g>
<g>
</g>
<g>
</g>
<g>
</g>
<g>
</g>
<g>
</g>
<g>
</g>
<g>
</g>
<g>
</g>
<g>
</g>
<g>
</g>
<g>
</g>
<g>
</g>
</svg>
